<?xml version="1.0" encoding="UTF-8"?>
<svg width="68px" height="28px" viewBox="0 0 68 28" version="1.1" xmlns="http://www.w3.org/2000/svg" xmlns:xlink="http://www.w3.org/1999/xlink">
    <title>编组 53</title>
    <defs>
        <path d="M12.9583033,26.0457185 L13.5329602,25.9822955 C13.4694362,25.9188725 13.2141639,25.9822955 12.9583033,26.0457185 C13.0859395,25.8548622 14.4899376,24.1353938 12.1936625,21.7793462 C12.1936625,21.7793462 12.9583033,21.6525002 13.1488753,21.9067795 C13.1488753,21.9067795 12.9583033,21.2067773 12.2571865,21.0799313 L13.5323721,20.9513235 C13.5323721,20.9513235 12.4477585,20.3781673 12.0007378,20.3147443 C12.0007378,20.3147443 12.2571865,18.1489658 10.597916,15.4752159 C10.66144,15.4112056 11.0449368,14.9014725 11.6190056,15.4752159 C11.7460536,15.6026492 11.4913694,14.6477804 11.8731016,14.5831829 C12.2565983,14.5197599 11.3637332,13.3094373 11.6825296,13.4368706 C12.0007378,13.5008809 12.1295503,14.7106162 12.1930743,14.13746 C12.2565983,13.5643039 11.6190056,9.42536486 11.7460536,10.061944 C11.8731016,10.5710899 12.5106943,13.6283142 12.1930743,9.29793157 C12.0660263,6.8144507 11.6825296,6.17728429 11.4260808,6.04985101 C11.6825296,6.11327403 11.8731016,6.36814059 11.9366256,6.36814059 C11.4260808,4.39439285 10.66144,3.63038041 10.66144,3.63038041 C10.0873713,1.84690171 11.8731016,0 11.8731016,0 C9.13098212,0.255453814 7.79168439,2.61091415 7.79168439,2.61091415 C7.472888,1.2097353 7.15409162,2.92979098 7.15409162,2.92979098 C6.83529523,1.08230202 6.38886266,2.99262675 6.38886266,2.99262675 C5.43188532,1.97374774 5.9418419,3.18348305 5.9418419,3.18348305 C3.83731521,1.08230202 1.47692795,1.90973748 1.47692795,1.90973748 C3.26265826,3.50235988 3.07149806,5.03038476 3.00797406,5.54011789 C2.1792211,5.22182831 3.00797406,6.24012006 3.00797406,6.24012006 C1.9880609,5.73097418 1.92394871,6.11268678 2.11510891,6.24012006 C2.3062691,6.43097636 3.00797406,7.25899906 3.32735863,8.66017792 C3.45440664,9.16991104 3.39088263,9.48820062 3.19913425,9.67905692 C2.49801748,9.86991322 1.79631252,10.1882028 1.47692795,10.5064924 C1.22165557,10.824782 1.15813157,11.2710921 1.41340395,11.7802379 C1.47692795,11.843661 1.47692795,11.9710942 1.60456414,12.0985275 C1.22224376,12.4168171 -0.0529417832,13.7539857 0.839335183,16.4289101 C0.839335183,16.4289101 0.839335183,15.9203515 0.902859186,15.9203515 C0.966383189,15.9203515 1.41281576,17.8295017 1.66867633,17.6398199 C1.92394871,17.4477891 1.98747272,16.8117972 2.11510891,16.7471997 C2.2427451,16.7471997 2.88033787,17.8295017 2.62506549,18.083781 C2.4974293,18.2123888 3.00738587,17.9575222 3.32677044,17.5752224 C3.32677044,17.5752224 4.02788722,17.2569328 3.64556683,20.0592905 C3.64556683,20.0592905 2.68858949,19.9318572 1.98747272,20.1861365 C1.98747272,20.1861365 2.88033787,20.2495596 3.00738587,20.8227157 C3.00738587,20.8227157 2.3062691,21.2050156 1.98747272,22.2244818 C1.98747272,22.2244818 2.43390529,21.4592949 3.39088263,21.5867281 C3.39088263,21.5867281 2.4974293,22.1598843 2.2427451,23.3061966 C1.22224376,23.8153425 0.392902607,21.5867281 0.392902607,22.0330383 C0.392902607,22.4787611 0.45642661,22.6061944 0.45642661,22.6061944 C0.137630225,22.0330383 0.00999403448,21.7153359 0.00999403448,21.7153359 C-0.181166159,24.8982317 2.43331711,25.2805316 2.43331711,25.2805316 C2.49684111,25.4713879 2.6244773,25.6634187 2.75211349,25.8536877 C2.75211349,25.8536877 2.75211349,25.8536877 2.68858949,25.8536877 C2.4974293,25.8536877 2.3697931,25.8536877 2.24215691,25.8536877 L2.6244773,25.8536877 C1.73102396,25.981121 1.41222758,26.2365748 1.41222758,26.4902669 C1.41222758,26.6811232 1.54045196,27 2.11393254,27 C2.68741312,27 13.2123993,27 13.4676717,27 C13.7217677,27 14.0417405,26.8103182 14.0417405,26.5536899 C14.2334888,26.3645953 13.9793928,25.9822955 12.9583033,26.0457185 Z" id="path-1"></path>
        <filter x="-7.1%" y="-1.9%" width="110.6%" height="107.4%" filterUnits="objectBoundingBox" id="filter-2">
            <feOffset dx="-0.5" dy="1" in="SourceAlpha" result="shadowOffsetOuter1"></feOffset>
            <feColorMatrix values="0 0 0 0 0.109803922   0 0 0 0 0.203921569   0 0 0 0 0.470588235  0 0 0 1 0" type="matrix" in="shadowOffsetOuter1"></feColorMatrix>
        </filter>
    </defs>
    <g id="----1" stroke="none" stroke-width="1" fill="none" fill-rule="evenodd">
        <g id="编组-53" fill-rule="nonzero">
            <path d="M0.0695976978,22.5355205 L3.73466353,22.2861801 C3.67135663,22.9326181 3.72271613,23.4251423 3.888742,23.7637527 C4.15973746,24.3116858 4.65823883,24.5856524 5.38424616,24.5856524 C5.9259593,24.5856524 6.37407018,24.4455909 6.72857875,24.1654677 C7.08308736,23.8853446 7.30076801,23.5605865 7.38162078,23.1911933 C7.45843084,22.8402698 7.3875389,22.5262856 7.16894487,22.2492408 C6.95035084,21.9721959 6.35979959,21.7105425 5.39729118,21.4642804 C3.82334459,21.0517914 2.75653343,20.5038582 2.19685769,19.8204809 C1.63159728,19.1371036 1.464856,18.2659515 1.69663385,17.2070244 C1.84890651,16.511334 2.175655,15.8541221 2.67687933,15.2353886 C3.17810366,14.616655 3.83464992,14.1302874 4.6465181,13.7762856 C5.45838632,13.4222839 6.5037653,13.245283 7.78265515,13.245283 C9.35194785,13.245283 10.4780545,13.5669629 11.1609751,14.2103226 C11.8438956,14.8536823 12.1099211,15.8772091 11.9590515,17.2809031 L8.33153635,17.5117738 C8.37000391,16.9022751 8.26737521,16.4590033 8.02365013,16.1819585 C7.7799251,15.9049136 7.38999835,15.7663912 6.85386987,15.7663912 C6.41268078,15.7663912 6.05782144,15.8695134 5.78929181,16.075758 C5.52076213,16.2820024 5.35415626,16.532882 5.28947404,16.8283965 C5.24230993,17.0438758 5.29200936,17.2378072 5.43857224,17.4101907 C5.5782029,17.5887307 5.96625419,17.7549576 6.60272616,17.9088714 C8.17513075,18.3028908 9.27601605,18.7015275 9.90538213,19.1047817 C10.5347482,19.5080359 10.9474269,20.0082558 11.1434183,20.6054413 C11.3394096,21.2026269 11.3565526,21.8706128 11.1948471,22.6093991 C11.0048432,23.477473 10.6118601,24.2778248 10.0158977,25.0104545 C9.41993542,25.7430843 8.68959022,26.2987131 7.8248621,26.6773411 C6.96013402,27.0559691 5.93300247,27.245283 4.7434674,27.245283 C2.65480019,27.245283 1.30539352,26.8020112 0.695247369,25.9154677 C0.085101221,25.0289242 -0.12344867,23.9022751 0.0695976978,22.5355205 Z" id="路径" fill="#FFFFFF"></path>
            <path d="M11.1317105,23.7437895 L13.9002854,23.5714019 C13.8524637,24.0183327 13.8912604,24.3588515 14.0166756,24.5929582 C14.2213844,24.9717852 14.5979502,25.1611988 15.146373,25.1611988 C15.5555808,25.1611988 15.8940818,25.0643638 16.1618761,24.8706938 C16.4296703,24.6770237 16.5941053,24.4524942 16.6551811,24.1971051 C16.7132032,23.9544855 16.6596517,23.7374048 16.4945267,23.545863 C16.3294017,23.3543212 15.8833018,23.1734206 15.1562272,23.0031613 C13.9672747,22.7179768 13.1614101,22.3391497 12.7386335,21.8666799 C12.3116382,21.3942102 12.1856826,20.7919177 12.3607666,20.0598024 C12.4757927,19.5788196 12.7226171,19.1244399 13.1012398,18.6966633 C13.4798625,18.2688866 13.9758147,17.9326243 14.5890964,17.6878765 C15.2023782,17.4431287 15.9920529,17.3207547 16.9581208,17.3207547 C18.1435577,17.3207547 18.9942138,17.543156 19.5100891,17.9879586 C20.0259643,18.4327612 20.2269188,19.1404017 20.1129526,20.1108802 L17.3727433,20.2704983 C17.4018015,19.8491064 17.3242762,19.5426395 17.1401674,19.3510977 C16.9560585,19.1595559 16.6615095,19.0637851 16.2565204,19.0637851 C15.9232481,19.0637851 15.6551889,19.1350812 15.4523427,19.2776734 C15.2494966,19.4202656 15.1236432,19.5937173 15.0747826,19.7980286 C15.039155,19.9470055 15.0766977,20.0810848 15.1874107,20.2002664 C15.2928871,20.3237044 15.5860193,20.4386294 16.0668076,20.5450416 C17.2545951,20.8174566 18.0861992,21.0930639 18.5616196,21.3718637 C19.03704,21.6506634 19.3487757,21.9965027 19.4968267,22.4093817 C19.6448778,22.8222607 19.6578275,23.2840892 19.5356759,23.7948673 C19.3921477,24.3950316 19.09529,24.9483746 18.6451026,25.4548962 C18.1949152,25.9614178 17.6432156,26.3455655 16.9900038,26.6073393 C16.3367919,26.8691131 15.5609011,27 14.6623315,27 C13.0845613,27 12.0652253,26.6935331 11.6043236,26.0805994 C11.1434218,25.4676656 10.9858841,24.688729 11.1317105,23.7437895 Z" id="路径" fill="#FFFFFF"></path>
            <path d="M19.1438849,27 L21.3466139,17.3207547 L25.8451167,17.3207547 C26.6792761,17.3207547 27.2987817,17.3999845 27.7036335,17.5584442 C28.1084853,17.7169039 28.397133,18.0107146 28.5695764,18.4398762 C28.7420198,18.8690378 28.7581229,19.3917346 28.6178855,20.0079668 C28.4956786,20.544969 28.2869732,21.0082434 27.9917694,21.3977902 C27.6965655,21.7873369 27.3406824,22.1031558 26.92412,22.345247 C26.6586738,22.499305 26.3138357,22.6269531 25.8896057,22.7281912 C26.1843071,22.847036 26.3916204,22.9658807 26.5115456,23.0847255 C26.5928198,23.1639553 26.6982463,23.3334192 26.8278252,23.5931169 C26.957404,23.8528147 27.0379439,24.0530901 27.0694446,24.1939432 L27.7357272,27 L24.6850869,27 L23.9163223,24.042086 C23.8207492,23.6591418 23.7144853,23.4104482 23.5975306,23.2960051 C23.4369511,23.1463487 23.2335235,23.0715205 22.9872479,23.0715205 L22.7489166,23.0715205 L21.8549031,27 L19.1438849,27 Z M23.1245586,21.3063263 L24.366267,21.3063263 C24.5006229,21.3063263 24.7693627,21.2681137 25.1724864,21.1916886 C25.3753456,21.1572973 25.5546235,21.0694083 25.7103199,20.9280218 C25.8660163,20.7866353 25.9647352,20.6242318 26.0064766,20.4408115 C26.0682191,20.1695022 26.0180966,19.9612437 25.8561091,19.8160359 C25.6941217,19.6708281 25.3444162,19.5982242 24.8069927,19.5982242 L23.5132755,19.5982242 L23.1245586,21.3063263 Z" id="形状" fill="#FFFFFF"></path>
            <g id="编组-52" transform="translate(27.712230, 13.391502)">
                <path d="M7.38264376,0.363215 C7.487437,0.351675545 10.7053337,0.687324801 10.810127,0.675785391 C12.2201092,0.520523425 10.3103231,0.310523932 13.1302878,0 C14.5856083,0 14.4035376,1.74508495 15.2037449,2.14623387 C16.0039521,2.54738279 13.3793261,1.86665381 13.7854676,2.61695085 C14.1916092,3.36724794 17.0929444,1.22488222 17.1188502,2.22032587 C17.1447559,3.21576948 17.0248534,4.27064256 16.7591425,5.38494513 C16.3428623,7.13068582 15.8243964,8.48456342 15.2037449,9.44657797 C14.5830933,10.4085925 13.8478931,11.2146047 12.9981441,11.8646145 C12.1483951,12.5146243 11.2992675,12.9473452 10.4507614,13.162777 C9.29024305,13.4599243 8.26753717,13.608498 7.38264376,13.608498 L0,13.608498 L2.8922252,2.14623387 C3.12765567,1.22900798 6.39418904,0.472059924 7.38264376,0.363215 Z" id="路径" fill="#FFFFFF"></path>
                <path d="M6.72682278,2.60849802 C8.40284701,2.60849802 9.34757559,3.14504362 9.84028505,3.84587962 C10.2916107,4.48785077 10.4959661,5.64046557 9.99831989,7.46811032 C9.68446241,8.62077662 9.31080916,9.43984297 8.92650481,9.95204217 C8.45650073,10.5784616 7.91290461,11.0016192 7.3188296,11.2518108 C6.80626496,11.4676747 6.01911185,11.608498 4.93903728,11.608498 L2.28776979,11.608498 L4.2243944,4.49609172 C4.37596464,3.93943802 4.70837228,3.46753962 5.14948711,3.13480462 C5.59060189,2.80206962 6.14042386,2.60849802 6.72682278,2.60849802 Z" id="路径" stroke="#FFFFFF" stroke-width="2" fill="#0F2A6B"></path>
            </g>
            <g id="编组-5" transform="translate(48.359712, 17.320755)" fill="#FFFFFF">
                <path d="M0.19775856,4.73747116 C0.558742362,3.24361771 1.2556868,2.08057583 2.28859186,1.24834549 C3.32149692,0.416115165 4.58033085,0 6.06509365,0 C7.58728741,0 8.66133236,0.40883315 9.2872284,1.22649945 C9.91312443,2.04416575 10.0480944,3.18952275 9.69213821,4.66257043 C9.43371805,5.7319864 9.04192674,6.6089491 8.51676428,7.29345855 C7.99160177,7.977968 7.34301954,8.51059542 6.57101754,8.89134081 C5.79901549,9.2720862 4.90561656,9.46245887 3.89082071,9.46245887 C2.85938885,9.46245887 2.04547249,9.29809336 1.44907164,8.9693624 C0.852670781,8.64063139 0.430413347,8.12048745 0.182299337,7.40893052 C-0.0658146733,6.69737359 -0.0606615991,5.80688715 0.19775856,4.73747116 Z M2.98495659,4.73723607 C2.77013745,5.62621868 2.79084551,6.26492462 3.04708076,6.65335396 C3.30331602,7.04178329 3.73272983,7.23599796 4.33532219,7.23599796 C4.95488898,7.23599796 5.48038027,7.0457877 5.91179602,6.66536723 C6.34321181,6.28494675 6.67794108,5.6021921 6.91598394,4.61710329 C7.11628823,3.78818709 7.08547524,3.18251764 6.82354491,2.80009495 C6.56161458,2.41767225 6.12723139,2.22646091 5.52039545,2.22646091 C4.93902112,2.22646091 4.42529301,2.42067558 3.97921111,2.80910491 C3.53312922,3.19753424 3.20171104,3.84024463 2.98495659,4.73723607 Z" id="形状"></path>
                <path d="M14.5250693,6.17968175 L14.9889632,4.25995719 L19.401324,4.25995719 L18.4507217,8.19381904 C17.4671551,8.7686874 16.6256523,9.15997553 15.9262131,9.36768342 C15.2267739,9.57539131 14.431616,9.67924528 13.5407394,9.67924528 C12.4439525,9.67924528 11.5950461,9.49251797 10.9940201,9.11906334 C10.3929941,8.74560872 9.99155923,8.18962293 9.78971544,7.45110594 C9.5878717,6.7125889 9.60254304,5.86497281 9.83372953,4.90825762 C10.0770837,3.90118899 10.4967624,3.02524908 11.0927657,2.2804379 C11.688769,1.53562672 12.4347282,0.97019964 13.3306434,0.584156666 C14.0287707,0.286232194 14.9073176,0.137269958 15.9662842,0.137269958 C16.9874305,0.137269958 17.7288817,0.229584583 18.1906377,0.414213833 C18.6523937,0.598843082 19.0034147,0.885228225 19.2437007,1.27336926 C19.4839867,1.6615103 19.6161824,2.15350529 19.6402878,2.74935423 L16.7670788,3.24030019 C16.7377781,2.89202229 16.6099127,2.62556871 16.3834826,2.44093946 C16.1570525,2.25631021 15.833725,2.16399559 15.4135002,2.16399559 C14.7873652,2.16399559 14.235875,2.38114476 13.7590295,2.81544311 C13.282184,3.24974146 12.930196,3.936856 12.7030655,4.87678673 C12.4617393,5.87546312 12.477414,6.58880343 12.7500897,7.01680758 C13.0227654,7.44481173 13.4952831,7.65881384 14.1676429,7.65881384 C14.4870137,7.65881384 14.8028305,7.61265652 15.1150931,7.52034189 C15.4273557,7.42802726 15.7973574,7.27067279 16.2250982,7.04827848 L16.4349912,6.17968175 L14.5250693,6.17968175 Z" id="路径"></path>
            </g>
            <g id="logo-footer" transform="translate(36.273381, 0.000000)">
                <g id="路径">
                    <use fill="black" fill-opacity="1" filter="url(#filter-2)" xlink:href="#path-1"></use>
                    <use fill="#FFFFFF" xlink:href="#path-1"></use>
                </g>
                <path d="M3.25691007,4.0754717 C3.25691007,4.0754717 3.96770229,3.61005627 5.03279878,3.4935682 C5.09230443,3.26005527 4.3230984,2.09571147 2.01438849,2.03773585 C2.01438849,2.03773585 3.02052525,2.85315228 3.25691007,4.0754717 Z" id="路径" fill="#143D62"></path>
                <path d="M11.0791367,0.509433962 C11.0791367,0.509433962 9.49109507,0.883817604 8.63564895,2.63036618 C8.45250007,3.00417473 8.51336185,2.942065 9.91881814,3.56603774 C9.91881814,3.56546265 9.43023329,2.1306129 11.0791367,0.509433962 Z" id="路径" fill="#143D62"></path>
                <path d="M8.88665455,6.62264151 C8.8276542,6.62264151 8.8276542,6.62264151 8.76865385,6.56391151 C8.76865385,6.50518151 8.41301286,5.38441736 8.76865385,4.4409308 C8.8271079,4.264197 8.8271079,4.20492321 8.8271079,4.14619321 C8.70910721,4.20492321 8.53101356,4.4409308 8.41246656,4.55893459 C8.41246656,4.55893459 8.41246656,4.61766459 8.35346621,4.61766459 C8.35346621,4.67693839 8.29446586,4.67693839 8.23491921,4.67693839 C8.17537256,4.67693839 8.17591886,4.61766459 8.17591886,4.55839079 L8.17591886,4.4996608 C8.29446586,4.20492321 8.35346621,3.85145562 8.35346621,3.79218182 C8.35346621,3.79218182 8.17591886,3.79218182 7.40563651,4.61766459 C7.40563651,4.67693839 7.34663616,4.67693839 7.28708951,4.61766459 C7.22808916,4.61766459 7.22808916,4.55893459 7.22808916,4.4996608 C7.28708951,4.26365321 7.34663616,4.02818941 7.34663616,3.91018562 C7.28763581,3.96891562 7.16908881,4.14619321 6.87299446,4.61766459 C6.87299446,4.67693839 6.81399411,4.67693839 6.75444746,4.67693839 C6.69490082,4.67693839 6.69544711,4.61766459 6.69544711,4.55839079 C6.75444746,4.3223832 6.75444746,4.08691941 6.75444746,3.96891562 C6.69544711,4.02764562 6.51735347,4.26365321 6.22125912,4.91240218 C6.22125912,4.97113218 6.16225877,4.97113218 6.10271212,4.97113218 C6.04316547,4.97113218 6.04316547,4.91240218 6.04316547,4.85312838 C6.51735347,3.79163803 6.69490082,3.73236423 6.81344781,3.79163803 C6.87244816,3.79163803 6.93199481,3.85036803 6.93199481,4.20437941 C7.22808916,3.73290803 7.34663616,3.73290803 7.46572946,3.73290803 C7.52472981,3.73290803 7.64273051,3.79163803 7.52472981,4.20437941 C8.17591886,3.55617423 8.35401251,3.49690044 8.53155986,3.61490423 C8.59056021,3.73290803 8.59056021,3.85091182 8.59056021,4.08637561 C8.64956056,4.02764562 8.76865385,3.96837182 8.8276542,3.96837182 C8.88665455,3.96837182 8.9462012,3.96837182 9.00574785,4.02710182 C9.0647482,4.08583182 9.0647482,4.26310941 9.00574785,4.557847 C8.7096535,5.44260356 9.00574785,6.56336771 9.0647482,6.56336771 C8.9462012,6.50463771 8.9462012,6.56336771 8.88665455,6.62264151 C8.88665455,6.56336771 8.88665455,6.62264151 8.88665455,6.62264151 Z" id="路径" fill="#143D62"></path>
                <path d="M2.7759585,6.11320755 L2.70871537,6.11320755 C2.70871537,6.11320755 2.64147223,6.11320755 2.64147223,6.05529344 C2.5742291,5.99737934 2.30401131,5.8810149 1.96655039,5.76465045 C1.89930726,5.76465045 1.76357575,5.76465045 1.69633261,5.82256455 C1.69633261,5.88047866 1.62908948,5.88047866 1.56122372,5.82256455 C1.49398058,5.82256455 1.49398058,5.76465045 1.56122372,5.70620011 C1.69633261,5.53192156 1.96592777,5.58983566 2.03379353,5.58983566 C2.10165929,5.58983566 2.10103667,5.58983566 2.16890242,5.58983566 C2.10165929,5.53192156 2.10165929,5.47347121 2.10165929,5.47347121 C2.10165929,5.29919267 2.16890242,5.18282822 2.23676818,5.12491412 C2.37187707,5.06646377 2.5742291,5.06646377 3.11466467,5.35764301 C3.04679891,5.24127856 3.11466467,5.18336446 3.11466467,5.18336446 C3.1819078,5.06646377 3.38425983,5.00908591 4.46450834,5.53192156 C4.5323741,5.53192156 4.5323741,5.58983566 4.5323741,5.648286 C4.5323741,5.70673635 4.46450834,5.70620011 4.39726521,5.70620011 C3.72234337,5.41555711 3.45150296,5.35764301 3.38363721,5.35764301 C3.45150296,5.47400746 3.65447761,5.70620011 3.92407278,5.938929 C3.99131591,5.9968431 3.99131591,6.05529344 3.92407278,6.05529344 C3.85682964,6.11320755 3.78896388,6.11320755 3.78896388,6.05529344 C2.7759585,5.29972891 2.43849758,5.35764301 2.37125445,5.35764301 C2.23614556,5.35764301 2.23614556,5.41555711 2.23614556,5.47400746 C2.23614556,5.5324578 2.50636334,5.76465045 2.70871537,5.8810149 C2.7759585,5.8810149 2.7759585,5.938929 2.7759585,5.938929 C2.84320164,5.9968431 2.84320164,6.05529344 2.7759585,6.05529344 C2.7759585,6.11320755 2.7759585,6.11320755 2.7759585,6.11320755 Z" id="路径" fill="#143D62"></path>
                <path d="M5.29121707,9.48011879 C5.15778724,9.27993948 4.82666092,9.07976017 4.22928699,9.21280242 C3.16735691,9.34646061 1.77368845,9.74681923 1.24241738,10.3479731 C0.97678184,10.6824265 0.910678988,11.1499222 1.17692659,11.683939 C1.24241738,11.8841183 1.57415576,12.351614 1.97322113,12.8197256 C2.30495952,13.1535631 2.83561853,13.6216747 3.36627753,13.754717 L3.43299245,13.754717 C3.83144575,13.754717 4.29600191,13.3549743 4.69445521,12.4858881 C5.09229645,11.7510761 5.29182914,10.949127 5.42403484,10.6152895 C5.62295546,10.1477938 5.55624054,9.74743516 5.29121707,9.48011879 Z" id="路径" fill="#FFFFFF"></path>
                <path d="M1.65844303,11.6019827 C1.85480676,11.9943896 2.70935258,13.1076179 3.4323832,13.2392252 C4.0905653,13.3702287 4.87905049,11.3399756 5.0105657,10.6855616 C5.07541422,10.3583546 5.0105657,10.0963475 4.87905049,9.90014401 C4.74753529,9.70394054 4.48450487,9.63813692 4.15601988,9.70394054 C3.23601948,9.83494409 2.11904929,10.1621511 1.65904909,10.6209654 C1.46147325,10.881765 1.46147325,11.2095758 1.65844303,11.6019827 L1.65844303,11.6019827 Z" id="路径" fill="#143D62"></path>
                <path d="M2.02213395,11.2382897 C2.02213395,11.2382897 2.08303205,11.4511505 2.44674456,11.7169811 C2.38640515,11.7169811 2.02213395,10.9189986 2.99203397,10.7061379 C3.23450898,10.653168 1.90145514,10.8660287 2.02213395,11.2382897 Z" id="路径" fill="#FFFFFF"></path>
                <path d="M6.54676259,8.1509434 C5.7223492,8.1509434 5.03597122,7.57221104 5.03597122,6.87762543 C5.03597122,6.18250594 5.7223492,5.60377358 6.54676259,5.60377358 C7.37117599,5.60377358 8.05755396,6.18250594 8.05755396,6.87762543 C7.98853625,7.57221104 7.37117599,8.1509434 6.54676259,8.1509434 Z M6.54676259,5.7778204 C5.7920001,5.7778204 5.24175798,6.29889308 5.24175798,6.87815932 C5.24175798,7.45689168 5.86038462,7.97849824 6.54676259,7.97849824 C7.23314056,7.97849824 7.85113401,7.45689168 7.85113401,6.87815932 C7.85050082,6.29835919 7.30152508,5.7778204 6.54676259,5.7778204 Z" id="形状" fill="#143D62"></path>
                <path d="M4.28057554,8.66037736 C3.84913413,8.66037736 3.52517986,8.22371968 3.52517986,7.64150943 C3.52517986,7.05929919 3.84863651,6.62264151 4.28057554,6.62264151 C4.71251457,6.62264151 5.03597122,7.05929919 5.03597122,7.64150943 C5.03597122,8.22371968 4.71251457,8.66037736 4.28057554,8.66037736 Z M4.28057554,6.76886482 C3.9028777,6.76886482 3.63316462,7.20485175 3.63316462,7.64150943 C3.63316462,8.07816712 3.95711889,8.5148248 4.28057554,8.5148248 C4.60452982,8.5148248 4.92848409,8.07816712 4.92848409,7.64150943 C4.92848409,7.20485175 4.65827338,6.76886482 4.28057554,6.76886482 Z" id="形状" fill="#143D62"></path>
                <ellipse id="椭圆形" fill="#143D62" cx="6.79856115" cy="6.87735849" rx="1" ry="1"></ellipse>
                <ellipse id="椭圆形" fill="#143D62" cx="4.28057554" cy="7.89622642" rx="1" ry="1"></ellipse>
                <path d="M5.03597122,7.39189102 C4.68139077,6.4801879 3.91049244,6.63213842 3.91049244,6.63213842 L3.91049244,6.63213842 C3.91049244,6.63213842 3.3182502,7.01236484 3.3182502,7.92336773 C3.19914614,7.99899288 3.14014045,7.99899288 3.02158273,8.07531825 C3.02158273,8.07531825 3.02158273,8.07531825 3.02158273,8.1509434 C3.02158273,8.1509434 3.02158273,8.1509434 3.08058842,8.1509434 L3.08058842,8.1509434 C3.19914614,8.07531825 3.3182502,8.07531825 3.37725589,7.99899288 L3.37725589,7.99899288 C4.26671194,7.46751617 4.91795986,7.39189102 5.03597122,7.39189102 L5.03597122,7.39189102 L5.03597122,7.39189102 Z" id="路径" fill="#143D62"></path>
                <path d="M8.00878769,6.15456118 C7.94376601,6.15456118 7.87814227,6.15456118 7.87814227,6.15456118 C7.35616264,4.89757311 6.05031047,5.10750042 6.05031047,5.10750042 C6.05031047,5.10750042 5.72339589,5.17704689 5.4627071,5.52606714 C5.20081421,5.80554093 4.94012542,6.29365412 5.07077084,7.13207547 L5.07077084,7.13207547 L5.07077084,7.13207547 L5.07077084,7.13207547 C5.07077084,7.13207547 6.31160132,6.36448849 7.81312059,6.22410765 L7.81312059,6.22410765 L7.81312059,6.22410765 C7.87814227,6.22410765 7.94376601,6.22410765 7.94376601,6.22410765 C8.07380938,6.22410765 8.07380938,6.22410765 8.00878769,6.15456118 C8.07380938,6.15456118 8.07380938,6.15456118 8.00878769,6.15456118 Z" id="路径" fill="#143D62"></path>
            </g>
        </g>
    </g>
</svg>